<svg width="16" height="15" viewBox="0 0 16 15" fill="none" xmlns="http://www.w3.org/2000/svg">
<path d="M14.5117 0.0119057C14.9154 -0.0662174 15.2865 0.0249272 15.625 0.285343C15.9635 0.545761 16.1719 0.890814 16.25 1.3205C16.3281 1.75019 16.237 2.14732 15.9766 2.51191L7.89062 14.3088C7.63021 14.6473 7.29818 14.8557 6.89453 14.9338C6.49088 15.0119 6.11979 14.9208 5.78125 14.6603C5.57292 14.5041 5.02604 13.9507 4.14062 13.0002C3.25521 12.0497 2.42187 11.1317 1.64062 10.2463L0.429687 8.91816C0.143229 8.60566 -1.19209e-07 8.22805 0 7.78534C0 7.34264 0.15625 6.96503 0.46875 6.65253C0.78125 6.34003 1.14583 6.19029 1.5625 6.20331C1.97917 6.21633 2.33073 6.39211 2.61719 6.73066L6.48437 10.9103L13.5156 0.636906C13.776 0.298365 14.1081 0.0900326 14.5117 0.0119057Z" fill="#FF6B32"/>
</svg>
